<svg width="911" height="911" viewBox="0 0 911 911" fill="none" xmlns="http://www.w3.org/2000/svg">
<path d="M143.426 283H423.426L415.426 325H298.926L237.426 643H189.426L250.926 325H135.426L143.426 283ZM476.418 283H516.418L604.418 481L588.418 479L750.418 283H790.418L720.418 643H672.418L728.418 353L744.418 355L607.418 519H569.418L496.418 355L510.418 353L454.418 643H406.418L476.418 283Z" fill="white"/>
<circle cx="455.5" cy="455.5" r="435.5" stroke="white" stroke-width="40"/>
<line x1="147" y1="283.5" x2="62" y2="283.5" stroke="white"/>
<line x1="147" y1="324.5" x2="54" y2="324.5" stroke="white"/>
<rect x="57" y="284" width="87" height="40" fill="white"/>
<line x1="863" y1="601.5" x2="724" y2="601.5" stroke="white"/>
<line x1="863" y1="642.5" x2="717" y2="642.5" stroke="white"/>
<rect x="717" y="602" width="141" height="40" fill="white"/>
</svg>
