<svg xmlns="http://www.w3.org/2000/svg" xmlns:xlink="http://www.w3.org/1999/xlink" width="500" zoomAndPan="magnify" viewBox="0 0 375 374.999991" height="500" preserveAspectRatio="xMidYMid meet" version="1.0"><defs><g/></defs><g fill="#ffffff" fill-opacity="1"><g transform="translate(6.077033, 354.507942)"><g><path d="M 336.984375 -344.9375 C 338.929688 -344.9375 341.441406 -344.164062 344.515625 -342.625 C 347.585938 -341.09375 349.125 -337.117188 349.125 -330.703125 L 349.125 -317.3125 L 316.890625 -317.3125 L 316.890625 -298.046875 C 316.890625 -291.066406 315.351562 -286.8125 312.28125 -285.28125 C 309.207031 -283.75 306.695312 -282.984375 304.75 -282.984375 L 197.171875 -282.984375 L 197.171875 -270.421875 L 281.71875 -270.421875 L 281.71875 -260.375 L 205.53125 -260.375 L 205.53125 -201.34375 L 240.28125 -201.34375 L 240.28125 -170.796875 L 212.234375 -170.796875 L 212.234375 -124.75 L 244.890625 -124.75 L 244.890625 -114.703125 L 205.53125 -114.703125 L 205.53125 -84.5625 L 244.890625 -84.5625 L 244.890625 -54.421875 L 219.765625 -54.421875 L 232.328125 -54.421875 L 232.328125 -24.703125 L 243.21875 -24.703125 L 243.21875 -14.234375 C 243.21875 -7.816406 241.679688 -3.835938 238.609375 -2.296875 C 235.535156 -0.765625 233.160156 0 231.484375 0 L 192.5625 0 C 190.882812 0 188.507812 -0.765625 185.4375 -2.296875 C 182.375 -3.835938 180.84375 -7.816406 180.84375 -14.234375 L 180.84375 -24.703125 L 144.421875 -24.703125 L 144.421875 -54.421875 L 167.4375 -54.421875 L 167.4375 -84.5625 L 143.171875 -84.5625 L 143.171875 -114.703125 L 167.4375 -114.703125 L 167.4375 -124.75 L 149.859375 -124.75 L 149.859375 -170.796875 L 167.4375 -170.796875 L 167.4375 -201.34375 L 143.171875 -201.34375 L 143.171875 -260.375 L 180.84375 -260.375 L 180.84375 -270.421875 L 135.203125 -270.421875 L 135.203125 -282.984375 L 27.625 -282.984375 C 25.675781 -282.984375 23.164062 -283.75 20.09375 -285.28125 C 17.019531 -286.8125 15.484375 -291.066406 15.484375 -298.046875 L 15.484375 -317.3125 L 47.71875 -317.3125 L 47.71875 -330.703125 C 47.71875 -337.117188 49.253906 -341.09375 52.328125 -342.625 C 55.398438 -344.164062 57.910156 -344.9375 59.859375 -344.9375 Z M 293.859375 -228.5625 L 293.859375 -239.4375 L 233.171875 -239.4375 L 233.171875 -228.5625 Z M 125.578125 -254.9375 L 125.578125 -260.375 L 47.71875 -260.375 L 47.71875 -254.9375 Z M 125.578125 -254.9375 "/></g></g></g></svg>